<svg width="65" height="9" viewBox="0 0 65 9" fill="none" xmlns="http://www.w3.org/2000/svg">
<path d="M4.49023 8.82971H2.67383V1.77502H0.347656V0.263306H6.81641V1.77502H4.49023V8.82971ZM15.1543 8.82971H13.3438V5.13245H9.95117V8.82971H8.13477V0.263306H9.95117V3.62073H13.3438V0.263306H15.1543V8.82971ZM22.2559 8.82971H17.3223V0.263306H22.2559V1.75159H19.1387V3.63245H22.0391V5.12073H19.1387V7.32971H22.2559V8.82971ZM32.2227 6.45081C32.2227 7.22424 31.9434 7.83362 31.3848 8.27893C30.8301 8.72424 30.0566 8.9469 29.0645 8.9469C28.1504 8.9469 27.3418 8.77502 26.6387 8.43127V6.74377C27.2168 7.00159 27.7051 7.18323 28.1035 7.2887C28.5059 7.39417 28.873 7.4469 29.2051 7.4469C29.6035 7.4469 29.9082 7.37073 30.1191 7.21838C30.334 7.06604 30.4414 6.83948 30.4414 6.5387C30.4414 6.37073 30.3945 6.22229 30.3008 6.09338C30.207 5.96057 30.0684 5.83362 29.8848 5.71252C29.7051 5.59143 29.3359 5.39807 28.7773 5.13245C28.2539 4.88635 27.8613 4.65002 27.5996 4.42346C27.3379 4.1969 27.1289 3.93323 26.9727 3.63245C26.8164 3.33167 26.7383 2.9801 26.7383 2.57776C26.7383 1.81995 26.9941 1.22424 27.5059 0.790649C28.0215 0.357056 28.7324 0.140259 29.6387 0.140259C30.084 0.140259 30.5078 0.192993 30.9102 0.298462C31.3164 0.403931 31.7402 0.552368 32.1816 0.743774L31.5957 2.15588C31.1387 1.96838 30.7598 1.83752 30.459 1.76331C30.1621 1.68909 29.8691 1.65198 29.5801 1.65198C29.2363 1.65198 28.9727 1.73206 28.7891 1.89221C28.6055 2.05237 28.5137 2.26135 28.5137 2.51917C28.5137 2.67932 28.5508 2.81995 28.625 2.94104C28.6992 3.05823 28.8164 3.17346 28.9766 3.28674C29.1406 3.39612 29.5254 3.59534 30.1309 3.8844C30.9316 4.26721 31.4805 4.65198 31.7773 5.0387C32.0742 5.42151 32.2227 5.89221 32.2227 6.45081ZM37.0801 8.82971H35.2637V1.77502H32.9375V0.263306H39.4062V1.77502H37.0801V8.82971ZM48.5 4.53479C48.5 5.95276 48.1484 7.0426 47.4453 7.80432C46.7422 8.56604 45.7344 8.9469 44.4219 8.9469C43.1094 8.9469 42.1016 8.56604 41.3984 7.80432C40.6953 7.0426 40.3438 5.94885 40.3438 4.52307C40.3438 3.09729 40.6953 2.0094 41.3984 1.2594C42.1055 0.505493 43.1172 0.12854 44.4336 0.12854C45.75 0.12854 46.7559 0.507446 47.4512 1.26526C48.1504 2.02307 48.5 3.11292 48.5 4.53479ZM42.248 4.53479C42.248 5.49182 42.4297 6.21252 42.793 6.6969C43.1562 7.18127 43.6992 7.42346 44.4219 7.42346C45.8711 7.42346 46.5957 6.46057 46.5957 4.53479C46.5957 2.6051 45.875 1.64026 44.4336 1.64026C43.7109 1.64026 43.166 1.8844 42.7988 2.37268C42.4316 2.85706 42.248 3.57776 42.248 4.53479ZM52.0918 4.06604H52.6777C53.252 4.06604 53.6758 3.97034 53.9492 3.77893C54.2227 3.58752 54.3594 3.28674 54.3594 2.87659C54.3594 2.47034 54.2188 2.18127 53.9375 2.0094C53.6602 1.83752 53.2285 1.75159 52.6426 1.75159H52.0918V4.06604ZM52.0918 5.5426V8.82971H50.2754V0.263306H52.7715C53.9355 0.263306 54.7969 0.476196 55.3555 0.901978C55.9141 1.32385 56.1934 1.96643 56.1934 2.82971C56.1934 3.33362 56.0547 3.78284 55.7773 4.17737C55.5 4.56799 55.1074 4.87463 54.5996 5.09729C55.8887 7.02307 56.7285 8.26721 57.1191 8.82971H55.1035L53.0586 5.5426H52.0918ZM60.8633 3.79065L62.6504 0.263306H64.6074L61.7656 5.49573V8.82971H59.9609V5.55432L57.1191 0.263306H59.0879L60.8633 3.79065Z" fill="white"/>
</svg>
