<svg width="19" height="15" viewBox="0 0 19 15" fill="none" xmlns="http://www.w3.org/2000/svg">
<path opacity="0.3" d="M18.3036 2.00165C17.6286 2.28729 16.9127 2.47481 16.1796 2.558C16.942 2.12013 17.5285 1.42815 17.8045 0.602416C17.0786 1.0141 16.2845 1.30415 15.4563 1.46002C14.7574 0.746629 13.7799 0.342547 12.7574 0.344244C10.716 0.344244 9.05913 1.92625 9.05913 3.87776C9.05913 4.15506 9.09179 4.42532 9.15573 4.68338C6.08191 4.53578 3.35767 3.12952 1.53339 0.991158C1.21485 1.51245 1.03316 2.12013 1.03316 2.76792C1.03316 3.99339 1.68576 5.0752 2.67782 5.70904C2.09046 5.69183 1.51598 5.54025 1.00257 5.26699V5.31205C1.00257 7.02375 2.27741 8.45211 3.9683 8.77743C3.42372 8.91836 2.85274 8.93903 2.29857 8.83788C2.76936 10.2421 4.1355 11.2635 5.75302 11.2932C4.48762 12.2395 2.89332 12.8055 1.16035 12.8055C0.865671 12.8052 0.571257 12.7887 0.278564 12.7561C1.91494 13.7584 3.85917 14.3442 5.94736 14.3442C12.7493 14.3442 16.4683 8.95834 16.4683 4.28772C16.4683 4.13495 16.4683 3.98218 16.4568 3.8305C17.1804 3.33011 17.8053 2.71088 18.3024 2.00165H18.3036Z" fill="white"/>
</svg>
